<mxfile host="Electron" modified="2023-07-21T02:49:51.912Z" agent="Mozilla/5.0 (Macintosh; Intel Mac OS X 10_15_7) AppleWebKit/537.36 (KHTML, like Gecko) draw.io/21.6.1 Chrome/112.0.5615.204 Electron/24.6.1 Safari/537.36" etag="XDg7vwj8LMVeRaecGFgv" version="21.6.1" type="device" pages="2">
  <diagram id="SA1ZznpQd-21Omfcbg4e" name="Page-1">
    <mxGraphModel dx="1434" dy="800" grid="1" gridSize="10" guides="1" tooltips="1" connect="1" arrows="1" fold="1" page="1" pageScale="1" pageWidth="850" pageHeight="1100" math="0" shadow="0">
      <root>
        <mxCell id="0" />
        <mxCell id="1" parent="0" />
        <mxCell id="e1uYjDDmh3Iul_cl8Zb2-7" style="edgeStyle=orthogonalEdgeStyle;rounded=0;orthogonalLoop=1;jettySize=auto;html=1;" parent="1" source="e1uYjDDmh3Iul_cl8Zb2-3" target="2Nm5m2qWoD5HFzDfP6_M-8" edge="1">
          <mxGeometry relative="1" as="geometry">
            <mxPoint x="480" y="274" as="targetPoint" />
          </mxGeometry>
        </mxCell>
        <mxCell id="e1uYjDDmh3Iul_cl8Zb2-3" value="SQL SERVER&lt;br&gt;" style="aspect=fixed;html=1;points=[];align=center;image;fontSize=12;image=img/lib/azure2/databases/SQL_Server.svg;" parent="1" vertex="1">
          <mxGeometry x="425" y="239.5" width="68" height="68" as="geometry" />
        </mxCell>
        <mxCell id="yiH0uodWFcNJWEoq9QwY-1" style="edgeStyle=orthogonalEdgeStyle;rounded=0;orthogonalLoop=1;jettySize=auto;html=1;" parent="1" source="e1uYjDDmh3Iul_cl8Zb2-4" target="2Nm5m2qWoD5HFzDfP6_M-13" edge="1">
          <mxGeometry relative="1" as="geometry">
            <mxPoint x="80" y="200" as="targetPoint" />
          </mxGeometry>
        </mxCell>
        <mxCell id="e1uYjDDmh3Iul_cl8Zb2-4" value=".CSV&lt;br&gt;" style="sketch=0;pointerEvents=1;shadow=0;dashed=0;html=1;strokeColor=none;fillColor=#505050;labelPosition=center;verticalLabelPosition=bottom;verticalAlign=top;outlineConnect=0;align=center;shape=mxgraph.office.users.csv_file;" parent="1" vertex="1">
          <mxGeometry x="40" y="252.5" width="59" height="43" as="geometry" />
        </mxCell>
        <mxCell id="2Nm5m2qWoD5HFzDfP6_M-3" style="edgeStyle=orthogonalEdgeStyle;rounded=0;orthogonalLoop=1;jettySize=auto;html=1;" parent="1" source="e1uYjDDmh3Iul_cl8Zb2-16" target="2Nm5m2qWoD5HFzDfP6_M-4" edge="1">
          <mxGeometry relative="1" as="geometry">
            <mxPoint x="750" y="266" as="targetPoint" />
          </mxGeometry>
        </mxCell>
        <mxCell id="e1uYjDDmh3Iul_cl8Zb2-16" value="DATA LAKE" style="sketch=0;aspect=fixed;html=1;points=[];align=center;image;fontSize=12;image=img/lib/mscae/Data_Lake.svg;" parent="1" vertex="1">
          <mxGeometry x="860" y="219.73999999999998" width="70.04" height="92.16" as="geometry" />
        </mxCell>
        <mxCell id="e1uYjDDmh3Iul_cl8Zb2-35" style="edgeStyle=orthogonalEdgeStyle;rounded=0;orthogonalLoop=1;jettySize=auto;html=1;entryX=0;entryY=0.592;entryDx=0;entryDy=0;entryPerimeter=0;exitX=1;exitY=0.5;exitDx=0;exitDy=0;exitPerimeter=0;" parent="1" source="2Nm5m2qWoD5HFzDfP6_M-8" target="e1uYjDDmh3Iul_cl8Zb2-16" edge="1">
          <mxGeometry relative="1" as="geometry">
            <mxPoint x="723.5" y="273.97872000000007" as="sourcePoint" />
          </mxGeometry>
        </mxCell>
        <mxCell id="2Nm5m2qWoD5HFzDfP6_M-4" value="" style="shape=image;imageAspect=0;aspect=fixed;verticalLabelPosition=bottom;verticalAlign=top;image=data:image/png,iVBORw0KGgoAAAANSUhEUgAAAYUAAACBCAMAAAAYG1bYAAABC1BMVEX///8oLTMXHiUgJi0AAA4UGyMFERsjKC5MUFQAABFfYmUMFR74+PmbnZ/ExcbU1dWpqqva29wsMTeuoMn3N3ato8v5NHSpqM/yPnyxnMYbISgACxeJ1vTx8vLVaJ3SbaDOcqWH2Pb8MHDwQX6Oz+6E3vrm5+eChIaQkpUAAABCRkvHyMmxkL5ucXQ7P0Sur7G5urz8AGDYX5fS1+lnam1VWFzm4O17fYD10t/55+70krH0X47vf6XqyNrXj7bYg63gudHKwty3r9HQ6Pei1/L2tMjKcaXYz+Pk9PvZeKaWzOzWpcXS5vWp5vv/AGDu6vP0obv3usztZJTNwdvjscvBrM721+LqSISor9QSCNdVAAAJ+klEQVR4nO2ca0PbOBaGYzuyE2SHJNAB7JqytE0MNIm7Qwj0NlPa0p3OzjLTmXbn//+StWNJ1s2hLiH2hvN+aSPLjnweXY6OTmg0QCAQCAQCgUAgEAgEAoFAIBAIBAKBQCAQCAQCgUAgEAgEAoFAIBAIBAKB6q2LFy9fvjqXS1+/+enNz65UeP328vLtmVz13fuH79/JVUGl9OH54Q/b29uvhEL3l3/uP3r06Eq0+Me9va0HD3beilU/PXn48B9Pn/7rzlu6xjqfQ9jd3X7BlyYQ9h8dHBxcXXOFZ89SCjs7IoZPT1IKCQYYDd+v7cMf5hQe717kha8TCBmFX7mqe3uEwg5n8H8/oRR+W1mb104X/2EUPuSlbxiFq7zw+hml8PePeel7RuHp6lq9bkonJELh97z0Fx2FM0Zhh6PwCSjcXl+1Y+GnxWOBp/D+E1C4vQ5168LP2nUhp8Ct2bAuLEN/EB9pV3BV93U+0sfFPhK4qrfQi+eHyXZh+7NQeL2f7hcOrl4LpX8+m+8X/hYK3SfZfuHdnbd0rXX+OWHwh1z618H+1a/XUuHZ5dbW5Y9SofsuwfDb0nYLHc8blL1n4Hkd/RV34k1u26J7qFZgoqO43D3xETKDlu5Kz8YmtkpTve8aIiPRUSm7DZrpPXioudR3kivW8ZIad280N5uBumXu6c7JOX31ymaQXjGaMBhKyZ1bzTC9Mjd55vwmDYUOnl+xN5fVvvshoFAHAYW7Vxhy/w11vu1CCsk9oa6cUhiEmfIHKxT0D2gM7k9U3p2ZuJ/6oD2v1UcYGa2op9QpouDGo7GFsTUeqV4soWAghOdy2N0ShfDUxGN1Y9HtY1/nYK2lWokr4xx1etPAtObGcRIn/0SsU0DBjRIAc+/JsTCSEVEKTEFErkgUxmbaAukrG91m8mR8uqS3rLlOMq/Rsh3OXk57JEwGegonFuKNjCzRkAoFIyATj0ghtudfKe8esjpNZVyuWF8/fFAO/xtuZxKrk+j1x4/K4X9BVVldJNsqM3ifd+a1FLymdI/TFK8rFGjnFylEWb1AXKsnWR1ccr++ZF28TIPbjyUOE99G2JZmy+sve1tbD3YkDl1dVVUFFJI5hsOgoxAF6k1szkmlUqDbNJECaYE1Etp1nI3NQJ6oVir3kJz+Cxi89rxpaCpUpecLAoYoq4o3bviiIgrCpldDYaKBkBiNi9EpFEzaFpHCgDwp4Afupq00ogJ9Jqc8u4+5CbrXJu9j86GEL+zcmSvs0enCviF2KVCwEh/Joh/8fGVUKQxoU5LFHCGTLSpBPoKYj5S5SDiY0leRVueRnz2dH0inWTOUJX+lcvMTTy64HdHexS9lrvbEM/I1VXXiKPjmqBtPRia9NWDeo0qhRWA59rEXx9GxTTnmw5TuF2KifN6XKJB+bzh5qwakCN28sN2hvmpP/zdYP23nhfrT/ynrnc3F35RTsEfZK4czahUWlVYodMgs4jiEVMcibcsn8m/fO7eyxnIrMelv/mxx4+9YN1HgTKun0GIUOGA6MQp23tE9OlNTiyoUyFBw+qyvhlnYlRsM304hxjJ1MhyDav1UN6fAnW5qKXAzErc8l6YgdLuh1BVlCnRVwJwfRSeRJgVTIo5EGsuc1S7BMlXvXalePSer83+5Qi2FxpdnmtW5NAVL2KaRLzLJR5nCJLsJ6fYHaCJ+/hYKpCpzVsdZ6+2C89LVaZfkYHCJMAUUmKfKH0eXpeBHQikxC50RZAqjrCG+sHaGSBxAJSiExKMjHhbZzzvG4qavQO6rdNf2mYdQQKHh/pliuBRMUpaCFGUmbgtdL2UKWV+1pL1I1jxnTD6WiWyLzip5z3JHe3ck9/z8QiwpoJBUPTuTgsBlKWDx9NG1hSlHpmDwNmMaElOSj2Uo0J0QTj8MyMjA9QxsF1JQVZYCEt+YOCmmnoJriVCIiHtJH1XqlGeaPRKniwqhWdew9gopmIsohCIjqttQiEnEYsy+27BrmhywxhRIlkdaRqN7N0XAqtI6U/CI7U+Zm1ppNHWB1plCSHePpEHM1aqd1plCY0aiFuSfWripWtWGwvJ9pMRZFQ8s7Hq6qY07pSDtFxrfs1+ItPsFQzWnPh9pyt7OqK+b2rhTCpJFekvYO9NRph4R6Cl06BnFvNW1cVNduRcVU1CqlqVgloojkZMwMQLoSiE5Eq/GakiuIDfPyNNAauOmxi2ExqJtiijELRONxUm6dEzVESxKDILJR5kC7eZdzZNYIRlPGoMWUOCO/ao99M81CxKTO2jMG6eAwixIbOZgoWppCiY/EUfMec+knC+QlZQPqoZkGcjz4UkT1Ph0AYUQ0zbXxU3t0vfkDzr0FOjJmM93uu84a8s7dhxI9lPO2kieinXMyLtjMkvlP94h8SADyydmRdnC9IYsnFQDscHJJ0vpKbCEE/58sDwFIxhmJnVpplHeIxUKJOxjWH16gt+3lJ5PY6NGIPn+RRR6LIegHm5q7jzz51laClxV7mW/g4JhWsP4JB46FKvNTuPVHAwyGAwnmHY7ne6UJlg6/O/YRqxv96O4k3s9hZnzJGdBdoGrEusVwtZIS2GTVb0thWRSwxj77EM+w6kUcvYOwhjl+Uj87BOyZzvJk4PTgnykvD757rpEUyuiwMvhll5Nbp5n624KRE+t0+YvIurDFlHwJKegalVPwQluyFOdaTAoabFdISzR1OZs5yLR7UCZqSpS5RR8h59aXEel0Bi25ZsCdT6ftLmMfH3Odl6X5L/UxE2tggLirJUMhA0x7pAtxraYxh7na8i8pUiX5b7ZZ7sAo00eSpynpvgdPVKxLm5qBRSszjjws3scP+jL9oxTu/lyZko4a9LkYgs1hwU5pR7C2ZPz+WqEDWX62qT9ANXDTW1UQAElDxqOTWxjczzUhA8mvm1PVTOH3Q0H2zZ2NroLbNeZ9dMnc1afiR+TLx/RFaTaNG1Bq6cwN2I4GAyKsqQHRe5jcs/NnmUoPTjkfr/Z2Rgjm76a06/NUKiKQiXymha3JtUljpfqHlEIhZ/HBfWZj+4VhRPhcKcmsYtMq6NAf0u53PaXEEfBr/gXnbJWRyE7KvArDBrQH8X57dOaxI+oVkehMTkyfdyv8PdjJ23km8i2Z1X/wFzRCik0BtGw2t1q6A2jSV1iR7xWSQFUJKBQBwGFOggo1EFAoQ4CCnXQEincmNIKKpI+vWXEKCBtVc7tP2VV7dW1eu3EzhLb3I5yQg8Pff4vOjF7BzdWBZXThBytm0KAhyQpCGjY34syBXvTBGj4M8q3UdRMs4XxsRBxHljp4azfFiMOw3Za1W4JVXu+Oa9aryjl/51ONuzmsfzjLjfqN/2Rkn27YbeVqmHUP/JnMBJAIBAIBAKBQCAQCAQCgUAgEAgEAoFAIBAIBAKBQLfV/wD2/u2SfXLkQQAAAABJRU5ErkJggg==;" parent="1" vertex="1">
          <mxGeometry x="1030" y="236.14" width="179" height="59.36" as="geometry" />
        </mxCell>
        <mxCell id="2Nm5m2qWoD5HFzDfP6_M-8" value="" style="shape=image;imageAspect=0;aspect=fixed;verticalLabelPosition=bottom;verticalAlign=top;image=data:image/png,iVBORw0KGgoAAAANSUhEUgAAAT4AAACfCAMAAABX0UX9AAAAw1BMVEX///88Oj7iWhw4Njo1MzckIScnJCoyMDUsKS7hUAAqJywvLDHgTADgSQD4+Pj8/PyenZ7iVxWQj5Hm5ubu7u4fHCLhVArBwMF8e31eXF+CgYPh4eElIif54dns7Ow/PUHHxsdGREiqqquTkpS1tLVoZ2lycXPZ2dlhX2L+9/T318z88OuioaNMSk776+X1zcDrlHblbT3zwbHupYwXExvqj2/xuabnfFXkaDXrmHzohWHwsJvjYCUNBhJTUVUAAADmdEiASP+bAAAQEUlEQVR4nO1ceWO6OBAVOQXFE1FsFRWPHvaw9+X2+3+qJUAmCQTa3+5WdJv3T4sEG4bJzJuXoZWKgICAgICAgICAgICAgICAgICAwB7RLHsCR4yLm3aj/3BV9jSOFOf1frVa7Teuy57IUeKqUY0h7PdP8N5OzFeti/X7x3irY+tV259lT+b4AL6H3G9b9myODdd1ynzV2lnZ8zkyvPRp8/Vvyp7PkeGZXrxh9j0te0JHhbMaY71q+7bsGR0VTuus+ar1x7KndEzYprxPZI8/wh3OHGBGkT3+AE9J5nh+BPsVZI+r6+21qEwoJM7Xfq3c4hTcfuaOvNg+tBv1Wr1xK5IzxkWSOWpvlVOsHHCyx9n1S7VRw6YW5AbjPDFf/Zom0Ez2aJ7f3dbrfYoetp9Km++BAUc8pLUQCth/wOdPH59q9RrLrMPzZU75kHCTeFwdHWyBAzbOw8OrMNhlTRe5X8mzPhh8xtZJag0qe2ypYJexnli8CRJ/679ERyR7tPNMhwOlQIgrnHiTXPuSqUF4zscnNr8QWOyrn8fHZwU+BxC8BeMNJ96L5INtWkFIljLllQ2hSGO8Ym+DT27Tmbbdrzc+77aEE96VON8DQ6KVUqmUZA+Efq3+/nJ9Bhk6tN5ridM9MDRx4qU8CmqPdq3ef9jGAsEDXrxCTSU4fUhMVaPCWVR7hKZrPL1Birirg0mFGBjj9K7awI5Wp3PptlFr3N6dM59UeQN/L85f2rQIwPrU2zXrYudgPdHFgcSnh36d4XfFAe0CSEv9bV9zPFScbV9r9TQ3JgILB01ogan9chX/4vGJKwPUirzqCV/Q/9zXPA8RV2+3DZ76FNLiWkFCuAHK8v6LG1DPn7jKXRvR4vOC60j7Ve33bhGdvTb4tnu+K2Yi1yTpFhn5/42LdjbgtUNy9/aVQ5EK7jfrBM8ZGaBWf3q8+PK6C1jvv1knSIlQ/Vrtdfut2utZ6AQhXmnna1dvrr9ZtwJl+d06wSdjvm+nAEq4PxKdoBkEKzjour7v98jJURCMqbH+Zcu1kzOuG13tut34g7EbIRn5xIS++vPj96wBaaN2LC1rl462g4OOY2qm04LjjXkfwIGra4blzOOD+f0Q/Rh/fKzw95imqU6TsY/s/k+YNx6+44JvQJg//8097Q+2KUkqHC2UyVSRHOyOrinpHXxu7ujGboPNuTCiE75pJO7o6ZPNZopHpxtIw+zxHRdsAts5ko3JuS5LahcfGYZb6RrWLDmcyLI8TH53HX0RLuRRYtqpEdlxZmB/2xn4qgjbRtp+33JB8Nrj2JnsOdalZPr4SNVGFdswEg+bhYa05KTslJQhfR0aGcIzBvEHtm6uKjTusvZDLvj+VuyCVRw0D+N1j+Zq1hksFksvGPFOe7oU+s1lcuSbeuAuFCf2xqZudcZa4porTaPNszLlYYi1ZCXXjlQpXLsLashjg7eBG1YeT0XkGQhj+wCaWvyBpVm6IsuKbqmbIHN+pFpBZWAlHlSZWZJh6jh1tCzdrpiJa84MhVY/AksOM4Vpgee6hmyYjkd/+dUrz4C1Kopq+UoK4c1lJ19/pyoSgWxuVqkRS0XpzNcKjl+hL06ktR8f2Kq8mc9lKzbmDNmSoGMNg9ksaOknSdxshR/QFCjC6UM9/Q5C4yW0nL3kLoUI5I2jclvSmgNHlljIDuuAK1VSQneTnMQyQ1jGITq6rJumrCyjI9c0XOrKoRFZ1TdxaFwac94kLu4Y0ar2jnKHqzg2b3AM2DQvVFR/Gt2JLmXhXNJjhsrU87ylgsOaBkkkZHSOsg5PDpVJdNg0JcvtdVvxgKZiRsZsGTifSNZs3B3xrPL4Xm9j10MqQG+hylLBxM+J3Fde5THS0q6X2I/yP/8kNoKTpNruCaEwlYFuIMdyDTOuQgInDG7aRzcZeRItv6WREL1eyBBV9a90cIhx/RkFwXrU3x2YiiSvi6b+VL7m0jX41gs5MrlFyYmDnn4fh3z34wPOrf66j5bnCsoKV1JNVbKTkffRL9pHQvZWHyiT3OetSRQEoz2z7jCk6ZLu5YyLB4P71b8WuH4E9iTPepIs4azXHPfi27XhJyl34fdeD2wy8keps71eEz5AyJ/RVaSTXsa5zLrMH1ihmoiSDsq9Y8mLewn0xdfX/wxWGyOeApOFwspnVGnSAv4VEZxL2ewINGKtMLVaNH2R1EFJ21c2MAGGgVeCv/xKs1F72MJSvQH3K9oN/inYFmU8L/ADjxhQNrPkeU8ICxP8BOlV7qtoLd+2+2gX6Tx6tBfE/UpocGmB+fR1PFF7mSwba9P94uKfg2/CM6T8f6VJSlj1RI1XaP/36fGKemmwXYJkD2mDIgheZFK1MOX9MGb4qcob8uE4fK7yjlb6ao33l+133hX8IazIIqFcbR3SLc3Nv+rn0cH5LClkEGwZPWu1yfx3iHAdk9/3/j7HjIQ+6tOeau3GudfsA0scgHWo75qb6DNtRGXbFPb+b3LgKUs6/fEsf+GO3NZgMVwvO3xVK42u2/IWw+F60PILmF4GUzwtkGMrax2IDLe9vsp2oe4FHqRZqoTNh+9JqoFErUjVkjpf5JZVZ6oaFhouK5aprvMTeS+YD2Iso3mYmWktk3WCVJ1P3otsZVRuHsWZC5SNGDNJY1ihpDvLAgO6O1VnChrZUPgGXC2c8KHEiDZPxkBGtcTHPYMKhjc5b8fs3XwtivYV1uYhY9UtKQOF2mpj4W94QoQ2zC7h5sChnoqKgu4KzHcSP9QWfOD4qDOIeX+XxL597xm5Bpm4VcRUxkNT4sIY8ry26an8Slqx0krLeMpUjSo7rVgCC4AgxCpQ8/rlndPRtnfVauzQrpHnSeH9pJYtbZBJNkmPJhxPpdyHnoHC2jmy1yXQvkgj9Am9Ilt0p2/PKQuW0Nu8oyfv5MX2uSPlQ5bSC9LPcb3kr9D+10zpPTHPg4yGigyanLLyyxXTzVsvoeoImDXp8Lmyp0lFUHbscLfI2CFMyl0HKb0n3mpfY5uiPNsl1ssuj7Prh1q91u/3a+X01bNP/8TnDOmwYU/R9dSCszr0cJ+1XshxUsMpc6/Slo55HjkMKj0ZxJdOhYvTx7ubu+/1tP3nIHElnmJWQ5+d0N6hSYvO3NsZjETtUBR6RX+hYlq7pectJhrtZSZEsCUVUhE9lFU//LQJRjVXSbERwiizCM9Fh0q+EiFaANpBLGuenLaDKXUdXZlKxK6KuvRxl9X8hLK3hYVnYmpDXiPs0PcTuUobD7HdcY/CoWHBZkmDZcJNctfyCRO5Z5SbORDOKPFaZUh1b0jO4FKM6FImHXUpuWqBL7KWlQPFkCElssIQEVKX6GkZgZBbsiPhw0rPajZgCpChQLFgJfmAPFD88MrbNvgSzSlrvwlFREgks7I3QOKmjLMB9RQykoI9Id4a+yVRLJiB88z2iz5Mf9kBgSS3CMqUKLwLYGC8mo7cvhbHuAACoskRZFxYlFbMMBfJ31XYR7NMc3R5l/2yA0KXTR86mIoEcZlXm9lgjyRjg39FGTSDKazFDnOss5Rkl2bdZnnbBt/C6oSZLjShgHvxzUEiYxy8fBwNdX6ahFgXuxvsU1lMu2QlUyB+JWeUjhTXxUQOe2VeqwTkyNgAA3zjGl8bHeGnFNeyUE8YPj3KZqlo5H7Fm+XlI2DmnDxuyK15YmoPD4h605rYF3M7K7C1EykAH7Jkc8WpEdVvadsl4pKxX9zeAsqHlXcVDnY6Mh/cN6d2iTGUaW8GgqIygdUnkZjsOU/5X3g4YErbOJjjFKjk1ktTPB6tLrK9mDccr+64TJnzeQuRq9YktReqkQeBAV1+RLobzoxWnpJlQ1GARuBEkt9UhpWoSIgCY8osqyO7lB6VRbhqxkGBLj9Qq17zq9BHgn80Ys3nIRSwwaK1Xtlg2sfm6QXQmxZVxUjWl5sxJcOm2D6K5mCc3FgGqnq0y47NoXObbxEwC48TNWQaVscDdohaMYkgePDshfA2JBVRmdHMMx8wlSh6TbE5cr0PWyZiKj1gPUxsIA8R/VnqkZoz/pceDoYyPfWAX9ET2Njc8fLD5pNz63u8FCOmQmgR83TGQAFOkEZBCZIHx17SDdqQ9KIbhMyY506wzxnrTXjx5mbeHjZF1C4PK/+EqclWwADi9xuWGaHmQNDzPlIplewQotf3SOnOtweQZilqDSf6Ql6sJP6GjuBZqUwTJpEdYq5nExpo5UaF/aM51/Q0GyWUC50gpbvJXb1raOSJb2vO6YtigJ9OrKBAwcxOooU/xjHApZav/8/v97/FLNp+SNllR0sitNA84XyDByvdiUtc4ru82xwTXh2HSkxQUqHSSz0URsE2DoO9BBK+Veb1Mwg7qGjrUTIMR0LxiHqXEJUecRM9oxm4c+JvMbOBR8UWFPAIQYehO4gPQXX2NyQ8U+uM8JYoSDOle3qfqzeEe5In+BHA/my4+FPK/iUKs0D7opCLRZ48uYroMC55kNoBsJcNVV6QPZgWcR4N3Z/LiKjWkKYNM5N8BWkbIHKyJDNkbrUzUDqZJiejGoXIVUwA6cFfpRLQgvy1A2AvAW0YXZ51bXt0KVEbNBFDaLFbDrKDtx1HLbrbyqRqBnrT3dwE8QruznZq/B46VDGIqRC5isnTI/B5SoexyUI4APbSZBU1SzNMjdYLYn/y0qqvYprTxXJnMXvezA4is+kuG9pksRzqmoWM6tD+hgxD5ComTlJyFRWWqddPDoC9dDJ7WTQSrX6Y3nJAJpFTHRepPbD0O0pk+JQixBGNBOd2mG8gqhezP0QvX/8nTfMd9LJ6eNYiRW1SGFZqB5FuMmCAqCCOGbGgBXIVuxp5TfUVOiTiaqRMtNi9NeZGk33KXv4QgJnhx12Tbz9E4i4xb4myOHbuFMcmTfWsDkMt3wNgL7u8fkd9g9tSitvSJJRMOA2VI/77rYid4GAa9yRk2HGMKVyRKiip5Vs+e7EnfPudgC9ADJ/o/KGWxC1tx1NeayliJ5gWRkzFBtrHmol0V/ns9/aox5lpZNo7elNO+tANci+kwuoNOW3eujnPe92yo2btfT8ijhUxlRFfyiZROUPwZhSrLJ+9VJiOdjQnS+1QQblDVVjuhG1uDinMvOA1l9HSYd5JUAzU2mjfWxH0e3Sp7+gx7tldymSQpX9kns7Q0DFKfeMuwWrpGHrU3yIruuHsZkxGWzIVlj8wTsLZK7pumars+V98dbe1c8zQBuFwQ7UGLjKFPW8lQEcrfDRn/uqoBch8aW/eAXilL98QtttZT2VF2izmbtqb8FKDxbUKWh3Pm8/8773v1vNnrXmnNfMPvEHl36LJj2E4hqv/89v/GcCWg/P1WIEMQK7KbRkQKAAI6+VT/GME3vYo/j80AjlgKyyBPwRTYQn8KXDnXm5/i0AB4MUordx/CnGkAGE9t7FUoAB+UrobRf9+UCAPo1kCkTkEBAQEBAQEBAQEBAQEBAQEBAQEBAQEBAQEBAQEBAQEBBL8DWOPH1noJd8zAAAAAElFTkSuQmCC;" parent="1" vertex="1">
          <mxGeometry x="570" y="229" width="180" height="90" as="geometry" />
        </mxCell>
        <mxCell id="2Nm5m2qWoD5HFzDfP6_M-14" style="edgeStyle=orthogonalEdgeStyle;rounded=0;orthogonalLoop=1;jettySize=auto;html=1;" parent="1" source="2Nm5m2qWoD5HFzDfP6_M-13" target="e1uYjDDmh3Iul_cl8Zb2-3" edge="1">
          <mxGeometry relative="1" as="geometry" />
        </mxCell>
        <mxCell id="2Nm5m2qWoD5HFzDfP6_M-13" value="" style="shape=image;imageAspect=0;aspect=fixed;verticalLabelPosition=bottom;verticalAlign=top;image=data:image/jpeg,/9j/4AAQSkZJRgABAQAAAQABAAD/2wCEAAoHCAkICQkJCQkKCgkKCQwJDAYJBx8JCggMJSEcJyUhJCQpLi4zKSw4LSQWNDg0OC8xNTU1GiQ7QDszPy40NTEBDAwMEA8QHxISHjEhISExMTQ0NDE0NDQ0NDQ0MTQxNDQ0NDQxNDQxNDE/NDE0NDE0MTQ0MTQ0NDQ0NDE0MTQxMf/AABEIAMgAyAMBIgACEQEDEQH/xAAbAAEAAgMBAQAAAAAAAAAAAAAABgcBBAUDAv/EAEgQAAEEAAIEBRAHBwQDAAAAAAABAgMEBREGEhMhFjE1VLIUIjRBQlFhcXN0g5KTscHRFTJScoGRoSMzQ1WU4vAHRGLxJFOV/8QAGgEBAAMBAQEAAAAAAAAAAAAAAAEEBQMCBv/EAC8RAAIBAwAHCAICAwAAAAAAAAABAgMEERITITEzUnEFFDJRgaHB8BVhNEEisdH/2gAMAwEAAhEDEQA/ALWAAAAAAAIzpBpJ1DI6rURj527nTO3pD4Mu2p7hBzeEcq1aFGOlJ7CTArN2O4u9VcludM/sN3e4+fpnGed2PyLHc5eaKH5Snyss4FY/TOM86sfkPpnGOdWCe5vzQ/KU+VlnArH6ZxjnVgfTOMc6sDub80PylPlZZwKx+mcY51YH0zjPOrA7m/ND8pT5WWcCsXY3iycd2dPH/wBEi0Y0gdM/qS9JrPev7Ky7uv8AivwPE7WcVnedKXaNKc1DDWfMlgAKxoAAAAAAAAAAAAAAAAAAHnO9Y4pHpxsiV6fghWuC124nikTJ1VzZJXyP/wCWSK5ULJtdjz+Rf7ivtEeV6vim6Cly22U5tb8GVf7a1OL3NlhxRsia2ONrWMamSMamojT7AKeTUUUtyAAJyMIAAZGEB/nGAMjCIRp52VU83d0jj2MNmgp1b8ebopUzV6f7d6KqfA6+ne61U83d0iQYBDHYwSrFKxHxviejmr3Saymgqjp0ov7/AGYboKtc1FueMrqa2jGOpeYlWy5EtRpuVf47fmSErbGcMsYJbY+Nz0iV+0gsp3OXaXwoTPR/GGYpBv1W2o0yfD9rwp4DhXpLGnDc/YuWdy86mrskvc6wAKpogAAAAAAAAAAAAAAHla7Hn8i/3Fe6I8r1/TdBSwrXY8/kX+4r3RHlev6boKXLfhT6fBlXvHpdSxwAUzVAAAAAAAAAIPp52VU83d0iRaM8kUvuv6Skd087Kqebu6RItGeSKX3X9JS5U/jx6mXQ/mz6G7fpw4hA+vO3WY9Nzu3GvfQryaK5o9fRUdqvjXNj+1YYWYc/GcLixSuscmTZG74rGr+7X5HOhW0Xovws73lrrFpx2SW4+8KxKLE67Zo1ydxPh1t8Km6VpStW9H7zkc1UVi7OWsvFMz/OIsSnaiuQR2IXazJEz+74FIrUtB6S3MWl1rVoy2SW89wAcC6AAAAAAAAAAAAeVrsefyLvcpXuiPK9f03QUsK12PP5F/uK90R5Xr+m6Cly34U+nwZV7x6XUsYyAUzVAAAAAAANd16oiq1bVdHJxtWw3Nv6nrFLHMirHJHI1HZa0ciOT9AMkZ03oySxQ3I262y1o35dyxeJTR0c0jiowpUto/ZtVysna3PVTvKhNXMa9rmuajmuTJWq3c5CNXtD6s73SVpn19Zc1Zs9djfEW6dWDhoT3GZXt60auuo73vRucKcI5w/+nd8hwpwjnD/6d3yORwJd/ME/oP7hwJd/ME/+f/cToW/mzzrL/lXt/wBPPSK/g+KRa8czm3I29Y9armbRPsquRz9HcXkwywxj9Z9aZ7UdEncr30OpwKd/ME/of7iN2K/Ul91bW19lYbHtNXLWyXvFinqpRcE8opVu8QqKrNKL/X9lrAAy2fQp7AAASAAAAAAAAAeVrsefyLvcpXuiPK9f03QUsK12PP5F/uK90R5Xr+m6Cly34U+nwZV7x6XUsYyAUzVBji3qZNXEVTqO3v8A9rJ0VAZsbRv2m+sNZvfb6xSbGNVjM2ovWJv1Tbjij2carExc2Zq5WllW7f8AZQd/HyZ7TMYs1hdRjs7NjrljRe7cTPQFESpdRERqdWfVRuXctK/REYqo1Mk2j8mo7wqTz/T1USlb897f3UPVZYgkcrSblWb+7yXAcfFvNTFLXUNO1aRM1igfIjV7pUTcVEabNsEAwXFrWGzMdZnknrWXt6o2js+p5Xd23vJnxoT9DpOm4PDOdGtCqtKLBWOMcs2vPSzissY5YteffEsWfifQz+1PDHqWYZHbBUZqLcAAQSAAAAAAAAAeVrsefyL/AHFe6I8r1/TdBSwrXY8/kX+4r3RHlev6boKXLfhT6fBlXvHpdSxjJhVREVVVERONynIkx2hYhvx1bkS2K8U6am1RF10Rd6d/xlM1We2kDnMwnEXNcrXJTkVHI7JWrkVQssipqrLKqLuXOw75nSjtTWK7kt4naWKSJuux17JHIqb0yPmKpTlajo5pHtXvTGhSt2t+NpjXN2ptaGVjOTVjjYjI01e4b3bvmeLVdG1Ea52SI7+IvzOr1HDG1EWeVrUTLfOnW/oasceHvkWJtqRXs7nb7vwU7ODWFsKWmpLKz7nhXZGrEVzc1V8iq5Xu+0vhPhr3RvkRjpGIr81ayVzU4k8J1G0YWNySaZreuX9+hqpHh6yvjS0/a8a52NzvxyDpvYng9Rq73HPpklf+nskj2Ygkkkj0SWPLaPWTV3eEk2MV22sPuV1c1m1rvjR7naqNXLdvK9rQrV11rW7USSb3bO7lr/kedyeJETqy5NNmuSMs3Ven5cRXdpJyzlJF6HaMFDRw5MwsjLNRWquSva6NzU7l/EodevMTaLid1qsT663PhkbGDUY8YuNhkk2dOBm1mfHJqeBrUX9SRVKOjFO9FWa+Ka4/WkZ1Rb6o2eXjXJFPdatTWxrSaOFta1prTjLRTe46Wi82Iz0Gy4kub5HqsTli2cjoe0rk75CsZ5Zs+ffEs3xFY4vy1a8+OVo8yk/0WO01iEF+yzTJgyVGai3AAEEgAAAAAAAAHla7Hn8i/wBxXuiPK9f03QUsK12PP5F/uK90R5Xr+m6Cly34U+nwZV7x6XUsCzVgtN1bEbJGfYc3NDRXR7BlRU+jKiZplrJXRFOqCmapS8tNtWxLVmjar4JXROzb3l3fofba8KcUbE8TSbaX6PLae3EaqOR7EyswxszkmYndInbVDm0dGorMbJI8T2sK91HUTPxb13L4zRpXENHbvMO4sq2sbg9j/ZHUrxP1tZsaMax0j3v4o2JxqJKcMbstnC5Fa2Rj2b0c1UzRUJPiWjsdGqtmpYmmkj+uyRqdczt5IiEbdMj1VVdmv3TvCSm8pLHuUqsJ0loyzk+NjEqZKxuX2dU+Frwf+qP1TKyJ2kPhz3Lxqp1wjgpT82FZE3c1jfwPllVJ5Y4oYkkmkfs2Rom9zjYo1LWIy7CnC6aTtuTrY2eNeJCw9HNHYcIZtZFbNdkZk6zq7oU+y3weHtlWvWjDYsNmjaW1So8yyl/sxg2i2H0akcVirBPYVNpLYfFraz17SeBDdTR/B0VFTDKiKnb6nQ6YM1ts3lFJYPOGFkDUjjjRjE7lCtsY5YteffEs0rLGOWLXn3xLdp4pdDL7T8MepZoAKjNRbgACCQAAAAAAAADytdjz+Rf7ivdEeV6/pugpYVrsefyL/cV7ojyvX9N0FLlvwp9Pgyr3j0upYxkwZKZqg5VvBIZZHWKsklKy7609b93N95q7l951QE8ENJ7zgOrY5DuRKFxn2le6tI78MlQ4GI6M4jakWSDD4az3Lm9qYiixO8SZbifA6RqyjtTOM7enNf5LJXcOhOKv/ez04U7eT3TL+WSHYo6D0Y1Rbk8tpU/hp+yid+W8lgJlXnLZkiFrSg8qKPGtUr1GNirQxwxpxMjYiIewByLAAAAKyxjli1598SzSssY5YteffEuWfifQy+1PDHqWYZMGSozTW4AAgkAAAAAAAAA8rXY8/kX+4r3RHlev6boKWFa7Hn8i/wBxXuiHLFbxS9BS5b8KfT4Mq949LqWODBkpmqAAAAAAAAAAAAAAACssY5YteffEs0rLF+WbXn3xLln4n0MvtTwx6lmGR2wVGaa3AAEEgAAAAAAAAHxIxHsfGvE9ixr+JWbHzYJiebmLrV5nIrV/iM4v1Qs85mL4LVxVqLIislamTLLONvgXvoWKFVRbUtzKV5bSqpSi8SjuPGHSbCpGNc6xsnKm+GSN2bfyQ++EWEc7Z7N/yOCuhU+a6lyPV7WtEuZ8cCrPPIfUU66FvzP76FdV71bNBEh4RYRzxnsn/IzwiwjnjPZP+RHeBVnnkPqKOBdnnkPqKNXb8z++g7xe8iJFwiwjnjPZP+Q4RYRzxnsn/IjvAuzzyH1FHAuzzyH1FGrt+Z/fQd4veREi4RYRzxnsn/IcIsI54z2T/kR3gVZ55D6ijgVZ55D6ijV0OZ/fQd4veREi4RYRzxnsnfIcIsI54z2T/kR3gVZ55D6ijgVZ55D6ijV0OZ/fQd4veREh4RYRz1nsn/IzwiwjnjPZP+RHeBVnnkPqKOBVnnkPqKNXQ5n99Br73kR3LOlGFxRudHNtpMushjYqay/ihDcOilxfFWOVu+SxtpXI3cxueanZj0Kl1k2ltqM7epGquJLheFVcLjVkDFVzvrzu66R406VKL0Hls86q4uJrWpRUTfABSNcAAAAAAAAAAAAAAAAEZwbCKtypt5Nsk75p/wDyY7rmq3Jy5ZJnkSkQSYHBq4nJVp20sq6zNUudRMdxSWXLlq5+HebDMQuQTQR4jVijZZfs47FeZZ9V/GjXZohOGMnVMIrVVWo5Fcm9W629pyvpC7ZlmSjVhkggldE+exZVm2enGjURF/U13W208TxGSRFWR9erGyCPes0q55NQYYyd8HKt4lNWjrRyQw9W2dbKB1jUrwom9VVynlDjD1jupLHClmpB1RqxTbWvMzfkqL+BGBk7R8JNEqq1JY1VFyVu0TjOP1diVilNZjqwxRPqOki2lhdrxZ5qiIqImW9Dm4fA2vRw+eejVV09irqWI5HbWTPfrO4t/g3oTgZJWjmqqoioqpxtR31T6OFDaZTs47Zkz2cSwSK1ON3W8R9QYxOk1dtqOsyKzJs2dT3tvLC9eJHJ8iMDJ2wAQSAAAAAAAAAAAAAAAAAAYOBh6YvRr9Sx4bG5ySPe2y++1I97lXiTeSAEpkYOGuDTJRfGkzH3n2231sK3KN06Ki5eLdkfaxYhiM9RbVWOpDWlbYXK2ky2HpxZZcSHZAyMHFhjxHDpLEderHarz2H2GTdVpEsKu40ci8f4HnZwaS3dtWZG7ORYYOprrX74Z28aneAyMHBu0LVyOnZmp15bVbWjlw6w5Fisou7NF3oi9tMz6joyPqXWx4TWoySV3RsZDI1ZJlVO2qIiZHcAyMGmyCRMOStq/teotlqayfX1cuPxmi6hYXD8KrpGm1rSVVlZrp1qNTedoDIwcWbCpbS4zHJkxlzZ7KbWRd6JxqnjPKjTkbNCkmBUIVYub8RjcztdtqImeZ3wMjAABBIAAAAAAAAAAAAAAAAAAAAAAAAAAAAAAAAAAAAAAAAAAAAAAAB//9k=;" parent="1" vertex="1">
          <mxGeometry x="230" y="228" width="91" height="91" as="geometry" />
        </mxCell>
      </root>
    </mxGraphModel>
  </diagram>
  <diagram id="GPEx6uKSdr5UTu0UXqJW" name="Page-2">
    <mxGraphModel dx="1434" dy="800" grid="1" gridSize="10" guides="1" tooltips="1" connect="1" arrows="1" fold="1" page="1" pageScale="1" pageWidth="3300" pageHeight="4681" math="0" shadow="0">
      <root>
        <mxCell id="0" />
        <mxCell id="1" parent="0" />
        <mxCell id="dq_T6ZkB-l4kP_Vrlszh-38" value="" style="shape=ext;double=1;rounded=0;whiteSpace=wrap;html=1;" vertex="1" parent="1">
          <mxGeometry x="300" y="190" width="210" height="350" as="geometry" />
        </mxCell>
        <mxCell id="dq_T6ZkB-l4kP_Vrlszh-35" value="" style="shape=ext;double=1;rounded=0;whiteSpace=wrap;html=1;" vertex="1" parent="1">
          <mxGeometry x="40" y="190" width="250" height="350" as="geometry" />
        </mxCell>
        <mxCell id="dq_T6ZkB-l4kP_Vrlszh-30" value="" style="shape=ext;double=1;rounded=0;whiteSpace=wrap;html=1;" vertex="1" parent="1">
          <mxGeometry x="520" y="190" width="510" height="350" as="geometry" />
        </mxCell>
        <mxCell id="dq_T6ZkB-l4kP_Vrlszh-29" value="" style="shape=ext;double=1;rounded=1;whiteSpace=wrap;html=1;" vertex="1" parent="1">
          <mxGeometry x="781.5" y="245" width="167" height="120" as="geometry" />
        </mxCell>
        <mxCell id="dq_T6ZkB-l4kP_Vrlszh-28" value="" style="shape=ext;double=1;rounded=1;whiteSpace=wrap;html=1;" vertex="1" parent="1">
          <mxGeometry x="783" y="390" width="170" height="110" as="geometry" />
        </mxCell>
        <mxCell id="dq_T6ZkB-l4kP_Vrlszh-33" style="edgeStyle=orthogonalEdgeStyle;rounded=0;orthogonalLoop=1;jettySize=auto;html=1;" edge="1" parent="1" source="dq_T6ZkB-l4kP_Vrlszh-27" target="dq_T6ZkB-l4kP_Vrlszh-29">
          <mxGeometry relative="1" as="geometry" />
        </mxCell>
        <mxCell id="dq_T6ZkB-l4kP_Vrlszh-60" style="edgeStyle=orthogonalEdgeStyle;rounded=0;orthogonalLoop=1;jettySize=auto;html=1;entryX=0.5;entryY=0;entryDx=0;entryDy=0;" edge="1" parent="1" source="dq_T6ZkB-l4kP_Vrlszh-27" target="dq_T6ZkB-l4kP_Vrlszh-57">
          <mxGeometry relative="1" as="geometry" />
        </mxCell>
        <mxCell id="dq_T6ZkB-l4kP_Vrlszh-27" value="" style="shape=ext;double=1;rounded=1;whiteSpace=wrap;html=1;" vertex="1" parent="1">
          <mxGeometry x="540" y="250" width="170" height="110" as="geometry" />
        </mxCell>
        <mxCell id="dq_T6ZkB-l4kP_Vrlszh-3" value="Politica Microcredito Batch" style="image;sketch=0;aspect=fixed;html=1;points=[];align=center;fontSize=12;image=img/lib/mscae/Databricks.svg;" vertex="1" parent="1">
          <mxGeometry x="590" y="264.9" width="60" height="57.6" as="geometry" />
        </mxCell>
        <mxCell id="dq_T6ZkB-l4kP_Vrlszh-4" value="&lt;div style=&quot;&quot;&gt;job de Ingestão&lt;/div&gt;" style="image;aspect=fixed;html=1;points=[];align=center;fontSize=12;image=img/lib/azure2/analytics/Event_Hubs.svg;" vertex="1" parent="1">
          <mxGeometry x="140" y="360" width="67" height="60" as="geometry" />
        </mxCell>
        <mxCell id="dq_T6ZkB-l4kP_Vrlszh-9" style="edgeStyle=orthogonalEdgeStyle;rounded=0;orthogonalLoop=1;jettySize=auto;html=1;" edge="1" parent="1" source="dq_T6ZkB-l4kP_Vrlszh-8" target="dq_T6ZkB-l4kP_Vrlszh-4">
          <mxGeometry relative="1" as="geometry" />
        </mxCell>
        <mxCell id="dq_T6ZkB-l4kP_Vrlszh-8" value="SAS" style="image;aspect=fixed;html=1;points=[];align=center;fontSize=12;image=img/lib/azure2/general/File.svg;" vertex="1" parent="1">
          <mxGeometry x="60" y="250" width="56.00000000000001" height="69" as="geometry" />
        </mxCell>
        <mxCell id="dq_T6ZkB-l4kP_Vrlszh-64" style="edgeStyle=orthogonalEdgeStyle;rounded=0;orthogonalLoop=1;jettySize=auto;html=1;" edge="1" parent="1" source="dq_T6ZkB-l4kP_Vrlszh-16" target="dq_T6ZkB-l4kP_Vrlszh-63">
          <mxGeometry relative="1" as="geometry" />
        </mxCell>
        <mxCell id="dq_T6ZkB-l4kP_Vrlszh-16" value="BDAC Riscos Motores" style="image;sketch=0;aspect=fixed;html=1;points=[];align=center;fontSize=12;image=img/lib/mscae/Data_Lake_Storage.svg;" vertex="1" parent="1">
          <mxGeometry x="372.39" y="259.00000000000006" width="65.22" height="60" as="geometry" />
        </mxCell>
        <mxCell id="dq_T6ZkB-l4kP_Vrlszh-20" value="log_microcreditoBatch" style="image;aspect=fixed;html=1;points=[];align=center;fontSize=12;image=img/lib/azure2/general/File.svg;" vertex="1" parent="1">
          <mxGeometry x="840" y="259.20000000000005" width="56.00000000000001" height="69" as="geometry" />
        </mxCell>
        <mxCell id="dq_T6ZkB-l4kP_Vrlszh-21" value="Prateleira Parcelados" style="image;sketch=0;aspect=fixed;html=1;points=[];align=center;fontSize=12;image=img/lib/mscae/CosmosDB.svg;" vertex="1" parent="1">
          <mxGeometry x="843" y="409.9999999999999" width="50" height="50" as="geometry" />
        </mxCell>
        <mxCell id="dq_T6ZkB-l4kP_Vrlszh-36" value="Maestro&amp;nbsp;" style="text;strokeColor=none;fillColor=none;html=1;fontSize=24;fontStyle=1;verticalAlign=middle;align=center;" vertex="1" parent="1">
          <mxGeometry x="630" y="200" width="260" height="40" as="geometry" />
        </mxCell>
        <mxCell id="dq_T6ZkB-l4kP_Vrlszh-37" value="Ingesta" style="text;strokeColor=none;fillColor=none;html=1;fontSize=24;fontStyle=1;verticalAlign=middle;align=center;" vertex="1" parent="1">
          <mxGeometry x="130" y="200" width="100" height="40" as="geometry" />
        </mxCell>
        <mxCell id="dq_T6ZkB-l4kP_Vrlszh-39" value="Delta Lake" style="text;strokeColor=none;fillColor=none;html=1;fontSize=24;fontStyle=1;verticalAlign=middle;align=center;" vertex="1" parent="1">
          <mxGeometry x="320" y="205" width="150" height="35" as="geometry" />
        </mxCell>
        <mxCell id="dq_T6ZkB-l4kP_Vrlszh-43" value="1" style="ellipse;whiteSpace=wrap;html=1;aspect=fixed;strokeWidth=2;fontFamily=Tahoma;spacingBottom=4;spacingRight=2;strokeColor=#005700;fillColor=#008a00;fontColor=#ffffff;" vertex="1" parent="1">
          <mxGeometry x="260" y="510" width="20" height="20" as="geometry" />
        </mxCell>
        <mxCell id="dq_T6ZkB-l4kP_Vrlszh-44" value="2" style="ellipse;whiteSpace=wrap;html=1;aspect=fixed;strokeWidth=2;fontFamily=Tahoma;spacingBottom=4;spacingRight=2;strokeColor=#005700;fillColor=#008a00;fontColor=#ffffff;" vertex="1" parent="1">
          <mxGeometry x="480" y="510" width="20" height="20" as="geometry" />
        </mxCell>
        <mxCell id="dq_T6ZkB-l4kP_Vrlszh-45" value="3" style="ellipse;whiteSpace=wrap;html=1;aspect=fixed;strokeWidth=2;fontFamily=Tahoma;spacingBottom=4;spacingRight=2;strokeColor=#005700;fillColor=#008a00;fontColor=#ffffff;" vertex="1" parent="1">
          <mxGeometry x="1000" y="510" width="20" height="20" as="geometry" />
        </mxCell>
        <mxCell id="dq_T6ZkB-l4kP_Vrlszh-48" value="&lt;h1&gt;&lt;font style=&quot;font-size: 13px;&quot;&gt;Processo de ingestão que ira disponibilizar os dados na Delta Lake&lt;/font&gt;&lt;/h1&gt;" style="text;html=1;strokeColor=none;fillColor=none;spacing=5;spacingTop=-20;whiteSpace=wrap;overflow=hidden;rounded=0;" vertex="1" parent="1">
          <mxGeometry x="80" y="570" width="430" height="30" as="geometry" />
        </mxCell>
        <mxCell id="dq_T6ZkB-l4kP_Vrlszh-49" value="1" style="ellipse;whiteSpace=wrap;html=1;aspect=fixed;strokeWidth=2;fontFamily=Tahoma;spacingBottom=4;spacingRight=2;strokeColor=#005700;fillColor=#008a00;fontColor=#ffffff;" vertex="1" parent="1">
          <mxGeometry x="50" y="584" width="20" height="20" as="geometry" />
        </mxCell>
        <mxCell id="dq_T6ZkB-l4kP_Vrlszh-53" value="2" style="ellipse;whiteSpace=wrap;html=1;aspect=fixed;strokeWidth=2;fontFamily=Tahoma;spacingBottom=4;spacingRight=2;strokeColor=#005700;fillColor=#008a00;fontColor=#ffffff;" vertex="1" parent="1">
          <mxGeometry x="50" y="622" width="20" height="20" as="geometry" />
        </mxCell>
        <mxCell id="dq_T6ZkB-l4kP_Vrlszh-54" value="&lt;h1&gt;&lt;span style=&quot;font-size: 13px;&quot;&gt;Além das informações do PDA, também terão de estar no Delta Lake os dados do PE, UG, GU e MDO&amp;nbsp;&lt;/span&gt;&lt;/h1&gt;" style="text;html=1;strokeColor=none;fillColor=none;spacing=5;spacingTop=-20;whiteSpace=wrap;overflow=hidden;rounded=0;" vertex="1" parent="1">
          <mxGeometry x="80" y="610" width="640" height="30" as="geometry" />
        </mxCell>
        <mxCell id="dq_T6ZkB-l4kP_Vrlszh-55" value="3" style="ellipse;whiteSpace=wrap;html=1;aspect=fixed;strokeWidth=2;fontFamily=Tahoma;spacingBottom=4;spacingRight=2;strokeColor=#005700;fillColor=#008a00;fontColor=#ffffff;" vertex="1" parent="1">
          <mxGeometry x="50" y="663" width="20" height="20" as="geometry" />
        </mxCell>
        <mxCell id="dq_T6ZkB-l4kP_Vrlszh-56" value="&lt;h1&gt;&lt;span style=&quot;font-size: 13px;&quot;&gt;Com todas a informações disponíveis será desenvolvido um script PYSPARK com as politicas batch. E um outro script para disponibilizar algumas variavéis na prateleira de parcelados. Todo o processo será orquestrado via MAESTRO&amp;nbsp;&lt;/span&gt;&lt;/h1&gt;" style="text;html=1;strokeColor=none;fillColor=none;spacing=5;spacingTop=-20;whiteSpace=wrap;overflow=hidden;rounded=0;" vertex="1" parent="1">
          <mxGeometry x="80" y="650" width="660" height="100" as="geometry" />
        </mxCell>
        <mxCell id="dq_T6ZkB-l4kP_Vrlszh-61" style="edgeStyle=orthogonalEdgeStyle;rounded=0;orthogonalLoop=1;jettySize=auto;html=1;entryX=-0.006;entryY=0.591;entryDx=0;entryDy=0;entryPerimeter=0;" edge="1" parent="1" source="dq_T6ZkB-l4kP_Vrlszh-57" target="dq_T6ZkB-l4kP_Vrlszh-28">
          <mxGeometry relative="1" as="geometry" />
        </mxCell>
        <mxCell id="dq_T6ZkB-l4kP_Vrlszh-57" value="" style="shape=ext;double=1;rounded=1;whiteSpace=wrap;html=1;" vertex="1" parent="1">
          <mxGeometry x="540" y="400" width="170" height="110" as="geometry" />
        </mxCell>
        <mxCell id="dq_T6ZkB-l4kP_Vrlszh-58" value="Publico para Prateleira" style="image;sketch=0;aspect=fixed;html=1;points=[];align=center;fontSize=12;image=img/lib/mscae/Databricks.svg;" vertex="1" parent="1">
          <mxGeometry x="590" y="414.9" width="60" height="57.6" as="geometry" />
        </mxCell>
        <mxCell id="dq_T6ZkB-l4kP_Vrlszh-63" value="Tabelas&lt;br&gt;" style="image;sketch=0;aspect=fixed;html=1;points=[];align=center;fontSize=12;image=img/lib/mscae/CosmosDB.svg;" vertex="1" parent="1">
          <mxGeometry x="370" y="400" width="70" height="70" as="geometry" />
        </mxCell>
      </root>
    </mxGraphModel>
  </diagram>
</mxfile>
